<svg id="Layer_1" data-name="Layer 1" xmlns="http://www.w3.org/2000/svg" viewBox="0 0 180 150"><defs><style>.cls-1{fill:#fff;}</style></defs><title>RHND-Logo</title><path class="cls-1" d="M64.4,140.8H64l-4.8-5.5v5.5h-.5v-6.3h.4l4.8,5.5v-5.5h.5Z"/><path class="cls-1" d="M71.2,134.8h-3v2.5h2.9v.4H68.2v2.6h3v.4H67.7v-6.3h3.5v.4Z"/><path class="cls-1" d="M76,140.8h-.1l-2.5-6.4h.5l2.1,5.3,2.1-5.3h.1l2.1,5.3,2.1-5.3h.5l-2.5,6.4h-.1l-2.1-5.3Z"/><path class="cls-1" d="M92.2,134.4c2.7,0,3.5,1.8,3.5,3.2a3.09,3.09,0,0,1-3.4,3.2H90v-6.3h2.2Zm-1.7,6h1.8a2.8,2.8,0,1,0,0-5.6H90.5Z"/><path class="cls-1" d="M102.2,134.8h-3v2.5h2.9v.4H99.2v2.6h3v.4H98.7v-6.3h3.5v.4Z"/><path class="cls-1" d="M105.6,140.4h3.1v.4h-3.6v-6.3h.5v5.9Z"/><path class="cls-1" d="M116.5,140.8H116v-3h-4.2v3h-.5v-6.3h.5v2.9H116v-2.9h.5Z"/><path class="cls-1" d="M120.3,140.8h-.5v-6.3h.5Z"/><path class="cls-1" d="M89,8.8V35.5a6.75,6.75,0,0,0,1.4.2,8.75,8.75,0,0,0,1.6-.2V8.9a7.77,7.77,0,0,0-1.6-.2,7.08,7.08,0,0,0-1.4.1"/><path class="cls-1" d="M80.9,16.2v12a7.51,7.51,0,0,0,2.6.5h.4v-13h-.4a4.68,4.68,0,0,0-2.6.5"/><path class="cls-1" d="M97.4,15.6H97v13h.4a7.51,7.51,0,0,0,2.6-.5v-12a7.51,7.51,0,0,0-2.6-.5"/><polygon class="cls-1" points="150.1 67.1 150.1 64.8 141.1 64.8 141.1 81 150.1 81 150.1 78.7 143.6 78.7 143.6 73.3 149.9 73.3 149.9 71 143.6 71 143.6 67.1 150.1 67.1"/><path class="cls-1" d="M38.9,72.5a4.91,4.91,0,0,0-.6-6.6,7.36,7.36,0,0,0-4.7-1.2H30.7V81h2.5V74.3h.4L38.2,81h3l-5-6.9a4.14,4.14,0,0,0,2.7-1.6m-5.6-.3V67h.9c2.3,0,3.4.8,3.4,2.5s-1.2,2.7-3.5,2.7Z"/><path class="cls-1" d="M55.8,64.5a8,8,0,0,0-6,2.5,8.35,8.35,0,0,0,.3,12.2,8.35,8.35,0,0,0,5.7,2.2,8.22,8.22,0,0,0,6.1-2.5,7.85,7.85,0,0,0,2.5-6,8.16,8.16,0,0,0-2.5-6,8.53,8.53,0,0,0-6.1-2.4m4.3,12.8a5.82,5.82,0,0,1-4.3,1.8,6.07,6.07,0,0,1-4.2-1.7A5.88,5.88,0,0,1,49.8,73a6.13,6.13,0,0,1,1.7-4.3,6,6,0,0,1,10.3,4.4,6.25,6.25,0,0,1-1.7,4.2"/><path class="cls-1" d="M77.9,71.4l-1.6-.7c-1.2-.5-1.8-1.1-1.8-1.9a1.51,1.51,0,0,1,.7-1.4,2.35,2.35,0,0,1,1.7-.6,2.9,2.9,0,0,1,1.4.3,3.82,3.82,0,0,1,1.1,1.3l2-1.2A4.91,4.91,0,0,0,77,64.5a5.13,5.13,0,0,0-3.5,1.2,4,4,0,0,0-1.4,3.1c0,1.8,1.1,3.2,3.3,4.1l1.6.7a10.91,10.91,0,0,1,1.1.6,4.35,4.35,0,0,1,.7.6,2.51,2.51,0,0,1,.4.7,2.77,2.77,0,0,1,.1.9,2.56,2.56,0,0,1-.8,1.9,2.64,2.64,0,0,1-1.9.7,2.53,2.53,0,0,1-2.2-1.1,3.93,3.93,0,0,1-.6-2l-2.5.5A5.55,5.55,0,0,0,73,79.9a5.2,5.2,0,0,0,3.5,1.3A5.12,5.12,0,0,0,81.7,76a4.28,4.28,0,0,0-.9-2.8,7.22,7.22,0,0,0-2.9-1.8"/><polygon class="cls-1" points="98.3 78.7 91.8 78.7 91.8 73.3 98.1 73.3 98.1 71 91.8 71 91.8 67.1 98.3 67.1 98.3 64.8 89.4 64.8 89.4 81 98.3 81 98.3 78.7"/><path class="cls-1" d="M104.4,81H107l1.8-3.9h7l1.7,3.9h2.7l-7.8-17.3Zm5.5-6.2,2.5-5.5,2.4,5.5Z"/><polygon class="cls-1" points="128.1 81 130.5 81 130.5 67.1 134.2 67.1 134.2 64.8 124.3 64.8 124.3 67.1 128.1 67.1 128.1 81"/><polygon class="cls-1" points="54.2 98.1 47.1 98.1 47.1 91.8 44.7 91.8 44.7 108 47.1 108 47.1 100.4 54.2 100.4 54.2 108 56.6 108 56.6 91.8 54.2 91.8 54.2 98.1"/><path class="cls-1" d="M72.9,91.5a8,8,0,0,0-6,2.5,8.35,8.35,0,0,0,.3,12.2,8.35,8.35,0,0,0,5.7,2.2,8.22,8.22,0,0,0,6.1-2.5,7.79,7.79,0,0,0,2.5-5.9A8.16,8.16,0,0,0,79,94a8.38,8.38,0,0,0-6.1-2.5m4.3,12.7a5.82,5.82,0,0,1-4.3,1.8,6.07,6.07,0,0,1-4.2-1.7,5.88,5.88,0,0,1-1.8-4.4,6.13,6.13,0,0,1,1.7-4.3A6,6,0,0,1,78.9,100a6.07,6.07,0,0,1-1.7,4.2"/><path class="cls-1" d="M98.8,101.5a5.27,5.27,0,0,1-.7,3.1,3.42,3.42,0,0,1-2.9,1.4,3.56,3.56,0,0,1-2.9-1.4,5.07,5.07,0,0,1-.7-3.1V91.7H89.1v10.5a5.65,5.65,0,0,0,1.6,4.2,6.13,6.13,0,0,0,4.4,1.9,5.76,5.76,0,0,0,4.4-1.9,5.65,5.65,0,0,0,1.6-4.2V91.8H98.6v9.7Z"/><path class="cls-1" d="M115.7,98.4l-1.6-.7c-1.2-.5-1.8-1.1-1.8-1.9a1.51,1.51,0,0,1,.7-1.4,2.35,2.35,0,0,1,1.7-.6,2.9,2.9,0,0,1,1.4.3,3.82,3.82,0,0,1,1.1,1.3l2-1.2a4.91,4.91,0,0,0-4.4-2.7,5.31,5.31,0,0,0-3.5,1.2,4,4,0,0,0-1.4,3.1c0,1.8,1.1,3.2,3.3,4.1l1.6.7a10.91,10.91,0,0,1,1.1.6,4.35,4.35,0,0,1,.7.6,2.51,2.51,0,0,1,.4.7,2.77,2.77,0,0,1,.1.9,2.73,2.73,0,0,1-2.7,2.7,2.32,2.32,0,0,1-2.2-1.1,3.93,3.93,0,0,1-.6-2l-2.5.5a5.55,5.55,0,0,0,1.7,3.5,5.2,5.2,0,0,0,3.5,1.3,5.12,5.12,0,0,0,5.2-5.2,4.28,4.28,0,0,0-.9-2.8,8.55,8.55,0,0,0-2.9-1.9"/><polygon class="cls-1" points="127.2 108.1 136.1 108.1 136.1 105.8 129.6 105.8 129.6 100.4 135.9 100.4 135.9 98.1 129.6 98.1 129.6 94.1 136.1 94.1 136.1 91.8 127.2 91.8 127.2 108.1"/></svg>